<?xml version="1.0" encoding="UTF-8" standalone="no"?>
<svg
   width="1435mm"
   height="300mm"
   viewBox="0 0 1435 300"
   version="1.1"
   id="svg1"
   inkscape:version="1.4 (86a8ad7, 2024-10-11)"
   sodipodi:docname="GloomLink-Logo.svg"
   xmlns:inkscape="http://www.inkscape.org/namespaces/inkscape"
   xmlns:sodipodi="http://sodipodi.sourceforge.net/DTD/sodipodi-0.dtd"
   xmlns:xlink="http://www.w3.org/1999/xlink"
   xmlns="http://www.w3.org/2000/svg"
   xmlns:svg="http://www.w3.org/2000/svg">
  <sodipodi:namedview
     id="namedview1"
     pagecolor="#d0d0d0"
     bordercolor="#666666"
     borderopacity="1.0"
     inkscape:showpageshadow="true"
     inkscape:pageopacity="0.0"
     inkscape:pagecheckerboard="0"
     inkscape:deskcolor="#d1d1d1"
     inkscape:document-units="mm"
     showborder="false"
     inkscape:zoom="0.078084352"
     inkscape:cx="2132.3094"
     inkscape:cy="390.60323"
     inkscape:window-width="1366"
     inkscape:window-height="705"
     inkscape:window-x="-8"
     inkscape:window-y="-8"
     inkscape:window-maximized="1"
     inkscape:current-layer="g2"
     borderlayer="true"
     inkscape:antialias-rendering="true" />
  <defs
     id="defs1">
    <linearGradient
       id="linearGradient4"
       inkscape:collect="always">
      <stop
         style="stop-color:#bfbfbf;stop-opacity:1;"
         offset="0"
         id="stop4" />
      <stop
         style="stop-color:#ffffff;stop-opacity:1;"
         offset="1"
         id="stop5" />
    </linearGradient>
    <linearGradient
       id="linearGradient2"
       inkscape:collect="always">
      <stop
         style="stop-color:#bfbfbf;stop-opacity:1;"
         offset="0"
         id="stop2" />
      <stop
         style="stop-color:#ffffff;stop-opacity:1;"
         offset="1"
         id="stop3" />
    </linearGradient>
    <linearGradient
       inkscape:collect="always"
       xlink:href="#linearGradient2"
       id="linearGradient3"
       x1="332.47464"
       y1="-10.005805"
       x2="583.38971"
       y2="284.17587"
       gradientUnits="userSpaceOnUse"
       gradientTransform="matrix(1.0066724,0,0,0.99626732,-330.60182,3.8786006)" />
    <linearGradient
       inkscape:collect="always"
       xlink:href="#linearGradient4"
       id="linearGradient5"
       x1="788.92426"
       y1="-281.25531"
       x2="880.58856"
       y2="213.74466"
       gradientUnits="userSpaceOnUse"
       gradientTransform="translate(-0.3739252)" />
  </defs>
  <g
     inkscape:label="Layer 1"
     inkscape:groupmode="layer"
     id="layer1">
    <g
       id="g2">
      <rect
         style="fill:none;stroke:none;stroke-width:2.866;stroke-dasharray:none"
         id="rect2"
         width="1432.1342"
         height="297.13409"
         x="0"
         y="-297.13409"
         transform="scale(1,-1)" />
      <path
         id="path2"
         style="fill:url(#linearGradient3);fill-rule:evenodd;stroke:#000000;stroke-width:1.00146;stroke-linecap:round;stroke-dasharray:none;stroke-opacity:1"
         d="m 254.49927,162.23048 c 0,62.73612 -166.23216,150.24013 -114.78015,113.59378 C 345.36792,129.35239 79.187892,195.43219 24.938961,162.23048 -28.975694,129.23338 166.8854,-59.624454 139.71912,48.636698 124.44066,109.52339 254.49927,99.494373 254.49927,162.23048 Z"
         sodipodi:nodetypes="sssss"
         inkscape:export-filename="GloomLink Icon.png"
         inkscape:export-xdpi="96"
         inkscape:export-ydpi="96" />
      <path
         style="font-weight:bold;font-size:210.017px;font-family:'Segoe Print';-inkscape-font-specification:'Segoe Print Bold';fill:url(#linearGradient5);stroke:#000000"
         d="m 435.35331,170.40909 h 0.10255 q -2.46114,8.40889 -4.92227,22.66297 -2.46114,14.15154 -2.46114,20.50947 0,11.79295 -0.2051,16.30503 -0.10254,4.51209 -1.84585,7.38341 -1.7433,2.87133 -4.51208,4.40954 -2.76878,1.64076 -6.25539,1.64076 -5.53756,0 -10.25474,-3.8968 -4.61463,-3.8968 -4.61463,-9.12672 0,-1.7433 2.87133,-14.97191 2.56368,-11.79295 4.10189,-20.20183 -34.35336,25.43174 -61.52842,25.43174 -18.35597,0 -29.22599,-10.66492 -10.76748,-10.66493 -10.76748,-29.226 0,-29.32855 17.63815,-56.2985 v 0.10254 Q 342.24031,96.369897 367.7746,80.167414 393.41144,63.96493 418.94573,63.96493 q 13.22861,0 20.91967,4.922274 7.69105,4.819726 7.69105,12.305683 0,6.255389 -5.33246,13.843894 -5.22992,7.588509 -10.56238,7.588509 -3.38407,0 -5.02482,-1.33312 -1.64076,-1.435663 -3.38407,-5.537557 -1.9484,-4.614632 -4.51208,-6.460484 -2.46114,-1.9484 -7.28086,-1.9484 -15.5872,0 -35.68649,15.382101 -19.99673,15.27956 -32.50751,36.30177 -12.40823,20.91966 -12.40823,39.99347 0,20.09928 17.22796,20.09928 8.92162,0 21.32985,-4.61463 12.40823,-4.61463 26.45722,-14.45918 14.04899,-9.84454 16.81776,-17.94578 2.87133,-8.10125 4.30699,-17.84324 0.82038,-5.74266 4.20445,-7.58851 3.48661,-1.9484 9.33181,-1.9484 13.4337,0 13.4337,9.12672 0,3.58915 -3.48661,11.6904 -2.76878,6.15284 -5.12737,14.86936 z M 506.62373,47.454805 q 11.07511,0 11.07511,12.100589 0,5.537557 -1.53821,11.998041 -1.53821,6.357937 -8.40888,31.687135 -5.02482,18.35598 -7.69105,40.09602 -2.56369,21.63749 -2.56369,33.84063 0,13.02351 1.9484,30.9693 0.51274,4.81973 0.51274,6.0503 0,6.15284 -4.51209,10.56237 -4.51208,4.40954 -9.84454,4.40954 -7.28087,0 -10.25474,-6.87067 -2.97387,-6.87068 -2.97387,-23.5859 0,-35.99412 8.40888,-84.80666 8.51143,-48.812549 13.8439,-57.631622 5.43501,-8.819073 11.99804,-8.819073 z M 625.68121,169.07598 q -6.87068,23.99608 -26.14958,40.50621 -19.17636,16.40757 -38.35272,16.40757 -15.177,0 -25.02155,-11.07511 -9.84455,-11.17766 -9.84455,-27.38015 0,-26.45722 18.04834,-52.09406 18.04833,-25.63684 43.78772,-25.63684 17.5356,0 28.40562,13.02352 10.87002,12.92096 10.87002,30.86675 0,7.7936 -1.7433,15.27956 z m -53.32463,-32.40497 q -7.17832,6.35794 -14.04899,20.30438 -6.87067,13.94644 -6.87067,27.99543 0,8.51143 3.07642,14.04899 3.17896,5.53755 8.30633,5.53755 12.71588,0 26.45722,-15.07446 13.74135,-15.07446 13.74135,-33.84063 0,-10.56238 -4.51209,-17.3305 -4.40953,-6.87068 -12.40823,-6.87068 -7.5885,0 -13.6388,5.22992 z m 171.66429,32.40497 q -6.87068,23.99608 -26.14958,40.50621 -19.17636,16.40757 -38.35271,16.40757 -15.17701,0 -25.02156,-11.07511 -9.84455,-11.17766 -9.84455,-27.38015 0,-26.45722 18.04834,-52.09406 18.04833,-25.63684 43.78772,-25.63684 17.5356,0 28.40562,13.02352 10.87002,12.92096 10.87002,30.86675 0,7.7936 -1.7433,15.27956 z m -53.32463,-32.40497 q -7.17832,6.35794 -14.04899,20.30438 -6.87067,13.94644 -6.87067,27.99543 0,8.51143 3.07642,14.04899 3.17897,5.53755 8.30633,5.53755 12.71588,0 26.45722,-15.07446 13.74135,-15.07446 13.74135,-33.84063 0,-10.56238 -4.51208,-17.3305 -4.40954,-6.87068 -12.40824,-6.87068 -7.5885,0 -13.63879,5.22992 z m 101.82953,78.34619 q -1.23057,10.56237 -11.79294,10.56237 -13.43371,0 -13.43371,-19.38145 0,-31.37949 3.38406,-53.63227 2.66624,-17.3305 2.66624,-34.04572 0,-3.99935 2.56368,-6.66558 2.56368,-2.76878 7.17832,-2.76878 15.3821,0 15.3821,18.66362 0,6.05029 -5.43501,30.86676 -3.28152,14.76682 -3.28152,21.43239 29.32855,-64.39974 52.91444,-64.39974 9.53691,0 15.27956,7.58851 5.8452,7.5885 6.05029,33.63553 0.10255,23.79099 2.46114,23.79099 1.84585,0 12.81842,-23.07316 12.20314,-25.53429 20.81712,-33.73808 8.71652,-8.20379 18.25343,-8.20379 11.38275,0 16.51012,9.84455 5.12737,9.742 7.17832,33.02025 1.53821,18.45852 4.10189,27.89288 2.66623,9.43436 9.02417,12.51078 5.12737,2.46114 5.12737,7.38341 0,4.40954 -5.8452,8.92162 -5.8452,4.40954 -11.8955,4.40954 -10.45983,0 -16.40757,-10.25474 -5.8452,-10.35728 -7.89615,-41.42913 -1.12802,-14.97192 -2.46114,-19.79165 -1.23057,-4.92227 -3.79425,-4.92227 -2.25604,0 -6.56303,7.38341 -4.30699,7.28086 -14.86937,29.12345 -9.33181,19.6891 -16.09993,27.4827 -6.66558,7.7936 -14.35664,7.7936 -5.94774,0 -11.99804,-5.12737 -5.94774,-5.12737 -6.46048,-37.2247 -0.51274,-28.61071 -3.69171,-28.61071 -4.30698,0 -20.71456,25.43175 -16.40758,25.43174 -24.71392,45.53103 z m 284.87653,1.12802 q -2.4611,0 -8.5114,-0.61529 -6.0503,-0.51273 -8.9216,-0.51273 -27.9954,0 -54.3501,8.30633 -10.87003,3.48661 -15.48466,3.48661 -6.25539,0 -9.742,-4.92227 -3.48661,-4.92227 -3.48661,-9.43436 0,-1.84585 1.84585,-9.43436 2.35859,-9.43435 3.79426,-21.53494 l 9.22926,-85.011766 q 1.12802,-12.100589 1.9484,-15.689746 0.92292,-3.589158 4.51208,-6.460484 3.58912,-2.871326 9.74202,-2.871326 4.9223,0 8.614,3.691705 3.6917,3.691705 3.6917,7.998694 0,3.8968 -1.8459,13.946441 -2.6662,14.356632 -7.4859,55.170482 -4.8198,40.81385 -4.8198,43.17244 0,2.97387 1.0255,2.97387 3.8968,0 21.4324,-2.76878 8.2038,-1.33311 16.6127,-1.7433 23.9961,-1.12802 33.6355,-3.48661 3.0764,-0.71783 4.5121,-0.71783 5.6401,0 8.8191,3.38406 3.1789,3.28152 3.1789,7.89615 0,6.87067 -5.5375,11.07511 -5.435,4.1019 -12.4083,4.1019 z m 88.7035,-147.463111 q 0,7.280863 -6.563,12.81842 -6.5631,5.435011 -11.3828,5.435011 -6.1528,0 -10.9726,-5.127369 -4.7171,-5.127368 -4.7171,-10.254736 0,-7.38341 4.7171,-11.895494 4.7172,-4.614631 13.5363,-4.614631 6.8707,0 11.0751,4.101894 4.307,3.999347 4.307,9.536905 z m -49.5304,84.293931 v 0.10255 q 3.2815,-18.66362 3.2815,-21.32985 0,-7.58851 3.2815,-12.71588 3.3841,-5.12736 9.3319,-5.12736 6.9732,0 10.87,3.28151 3.8968,3.28152 3.8968,7.38341 0,4.1019 -3.7943,16.92032 l -0.6153,2.25604 q -5.6401,19.79164 -6.7681,32.30242 -1.128,12.51078 -1.128,20.20183 0,6.25539 2.1535,16.71522 0.3076,1.84585 0.3076,3.07642 0,2.35859 -4.5121,6.35794 -4.4095,3.99934 -9.5369,3.99934 -13.5362,0 -13.5362,-20.50947 0,-17.43305 4.9223,-42.45461 1.0254,-5.53756 1.8458,-10.45983 z m 139.1568,53.11953 q -4.9223,-9.22926 -7.1783,-34.45591 -2.2561,-26.25212 -10.0497,-26.25212 -7.3834,0 -25.5343,27.38014 -18.1508,27.2776 -22.3553,40.30112 -0.9229,3.8968 -3.4866,6.46048 -2.4611,2.56368 -4.9223,2.56368 -15.5872,0 -15.5872,-14.25408 0,-4.81973 3.0764,-21.94514 3.9994,-22.15023 3.9994,-54.145 0,-4.81973 4.2044,-10.25474 4.2045,-5.53756 8.9217,-5.53756 5.9477,0 9.1267,2.97388 3.1789,2.97387 3.1789,15.79229 0,9.742 -5.8452,37.73743 22.2528,-52.09406 49.633,-52.09406 23.791,0 27.8928,37.42979 4.1019,38.14762 9.4344,38.14762 2.3586,0 5.435,-1.02548 3.6917,-1.23057 5.8452,-1.23057 4.9223,0 4.9223,5.74266 0,5.22991 -6.7681,11.17766 -6.7682,5.8452 -17.0229,5.8452 -11.8955,0 -17.0229,-10.35729 z m 147.8733,-70.65513 h 0.1026 q 0,0 -0.2051,0.2051 -5.9478,3.28151 -9.6395,5.74265 -6.8706,4.61463 -13.8439,9.94709 -7.9987,6.15284 -11.998,10.35729 -3.3841,3.48661 -3.3841,5.12736 0,1.84586 11.9981,14.45918 11.998,12.51078 18.9712,17.94579 7.0758,5.43501 13.9465,5.43501 l 4.5121,-0.10255 q 2.4611,0 3.8968,1.53821 1.5382,1.43567 1.5382,4.40954 0,4.20444 -5.2299,9.742 -5.23,5.53756 -17.9458,5.53756 -7.486,0 -15.177,-5.43501 -7.6911,-5.53756 -23.5859,-24.81646 -12.7159,-15.48466 -13.8439,-15.48466 -0.7179,0 -4.307,3.69171 -3.5892,3.6917 -4.7172,5.6401 v 0.10255 q -1.7433,8.51143 -1.7433,22.25278 0,6.87067 -4.1019,11.17766 -3.9993,4.30699 -9.8445,4.30699 -6.0503,0 -9.4344,-3.48661 -3.3841,-3.38406 -3.3841,-6.87067 0,-3.69171 2.5637,-16.20249 4.9223,-24.30372 8.3064,-64.50229 3.2815,-32.09732 5.7426,-50.043109 2.4611,-18.048336 4.4095,-23.585894 1.9484,-5.640105 6.0503,-8.92162 4.1019,-3.384063 8.8191,-3.384063 4.5121,0 7.1783,3.794252 2.7688,3.691705 2.7688,9.024168 0,6.665579 -8.614,52.094056 l -2.4611,13.43371 h 0.1025 q -4.512,29.63619 -4.6146,34.25082 l 31.4821,-28.50817 q 24.0986,-23.27825 35.3788,-23.27825 10.87,0 10.87,8.71653 0,10.87002 -10.5624,15.68974 z"
         id="text3"
         aria-label="GloomLink" />
    </g>
  </g>
</svg>
