<svg width="21" height="21" viewBox="0 0 21 21" fill="none" xmlns="http://www.w3.org/2000/svg">
<g clip-path="url(#clip0_225_1071)">
<path fill-rule="evenodd" clip-rule="evenodd" d="M20.1 10.4508C20.1 9.74176 20.0364 9.05994 19.9182 8.4054H10.5V12.2736H15.8818C15.65 13.5236 14.9455 14.5827 13.8864 15.2918V17.8009H17.1182C19.0091 16.0599 20.1 13.4963 20.1 10.4508Z" fill="#F7F7F7"/>
<path fill-rule="evenodd" clip-rule="evenodd" d="M10.5001 20.2236C13.2001 20.2236 15.4637 19.3281 17.1183 17.8008L13.8864 15.2917C12.991 15.8917 11.8455 16.2463 10.5001 16.2463C7.89554 16.2463 5.69099 14.4872 4.90463 12.1236H1.56372V14.7145C3.20918 17.9827 6.59099 20.2236 10.5001 20.2236Z" fill="#F7F7F7"/>
<path fill-rule="evenodd" clip-rule="evenodd" d="M4.90455 12.1236C4.70455 11.5236 4.59091 10.8827 4.59091 10.2236C4.59091 9.56448 4.70455 8.92358 4.90455 8.32358V5.73267H1.56364C0.886364 7.08267 0.5 8.60994 0.5 10.2236C0.5 11.8372 0.886364 13.3645 1.56364 14.7145L4.90455 12.1236Z" fill="#F7F7F7"/>
<path fill-rule="evenodd" clip-rule="evenodd" d="M10.5001 4.20084C11.9683 4.20084 13.2864 4.70539 14.3228 5.6963L17.191 2.82812C15.4592 1.21448 13.1955 0.223572 10.5001 0.223572C6.59099 0.223572 3.20918 2.46448 1.56372 5.73266L4.90463 8.32357C5.69099 5.95994 7.89554 4.20084 10.5001 4.20084Z" fill="#F7F7F7"/>
</g>
<defs>
<clipPath id="clip0_225_1071">
<rect width="20" height="20" fill="white" transform="translate(0.5 0.223572)"/>
</clipPath>
</defs>
</svg>
