<svg width="50" height="50" viewBox="0 0 50 50" fill="none" xmlns="http://www.w3.org/2000/svg">
<path d="M42.0627 3C42.9256 3 43.6252 3.69966 43.6252 4.56273V7.16727H46.2293C47.0922 7.16727 47.7918 7.86694 47.7918 8.73C47.7918 9.59306 47.0922 10.2927 46.2293 10.2927H43.6252V12.8973C43.6252 13.7603 42.9256 14.46 42.0627 14.46C41.1997 14.46 40.5002 13.7603 40.5002 12.8973V10.2927H37.896C37.0331 10.2927 36.3335 9.59306 36.3335 8.73C36.3335 7.86694 37.0331 7.16727 37.896 7.16727H40.5002V4.56273C40.5002 3.69966 41.1997 3 42.0627 3Z" fill="white"/>
<path fill-rule="evenodd" clip-rule="evenodd" d="M32.2894 6.33331C32.2085 6.84233 32.1667 7.36427 32.1667 7.89601C32.1667 13.362 36.5971 17.7931 42.0625 17.7931C42.5942 17.7931 43.116 17.7511 43.625 17.6704V37.0663C43.625 42.5324 39.1946 46.9633 33.7292 46.9633H12.8958C7.43052 46.9633 3 42.5324 3 37.0663V16.2304C3 10.7644 7.43052 6.33331 12.8958 6.33331H32.2894ZM17.0625 20.3975C19.3637 20.3975 21.2292 18.5318 21.2292 16.2304C21.2292 13.9289 19.3637 12.0632 17.0625 12.0632C14.7613 12.0632 12.8958 13.9289 12.8958 16.2304C12.8958 18.5318 14.7613 20.3975 17.0625 20.3975ZM36.1929 32.8387C37.8592 35.6163 35.8587 39.1499 32.62 39.1499H13.3876C10.2902 39.1499 8.27565 35.8899 9.66087 33.1191L12.6004 27.2392C13.5805 25.2788 16.3778 25.2788 17.358 27.2392C18.2965 29.1165 20.9375 29.218 22.0173 27.4182L23.9062 24.2695C25.5246 21.5719 29.4337 21.5719 31.0521 24.2695L36.1929 32.8387Z" fill="white"/>
</svg>
