<svg width="30" height="30" viewBox="0 0 31 30" fill="none" xmlns="http://www.w3.org/2000/svg">
<g clip-path="url(#clip0_67_581)">
<path d="M7.74222 22.9277C8.49808 22.377 9.47659 22.2363 10.3555 22.5527C11.9082 23.1152 13.6485 23.4375 15.5 23.4375C22.8067 23.4375 27.6875 18.7207 27.6875 14.0625C27.6875 9.4043 22.8067 4.6875 15.5 4.6875C8.19339 4.6875 3.31253 9.4043 3.31253 14.0625C3.31253 15.9375 4.03909 17.7422 5.40433 19.2891C5.90823 19.8574 6.15433 20.6074 6.09573 21.3691C6.0137 22.4297 5.76175 23.4023 5.43362 24.2637C6.42972 23.8008 7.25589 23.2852 7.74222 22.9336V22.9277ZM1.74222 25.3066C1.84768 25.1484 1.94729 24.9902 2.04104 24.832C2.62698 23.8594 3.18362 22.582 3.29495 21.1465C1.53714 19.1484 0.500029 16.7051 0.500029 14.0625C0.500029 7.33008 7.21487 1.875 15.5 1.875C23.7852 1.875 30.5 7.33008 30.5 14.0625C30.5 20.7949 23.7852 26.25 15.5 26.25C13.3262 26.25 11.2637 25.875 9.40042 25.2012C8.70315 25.7109 7.56643 26.4082 6.21878 26.9941C5.33401 27.3809 4.3262 27.7324 3.28323 27.9375C3.23636 27.9492 3.18948 27.9551 3.14261 27.9668C2.88479 28.0137 2.63284 28.0547 2.36917 28.0781C2.35745 28.0781 2.33987 28.084 2.32815 28.084C2.02933 28.1133 1.7305 28.1309 1.43167 28.1309C1.05081 28.1309 0.710966 27.9023 0.564482 27.5508C0.417997 27.1992 0.500029 26.8008 0.7637 26.5312C1.00393 26.2852 1.22073 26.0215 1.42581 25.7402C1.52542 25.6055 1.61917 25.4707 1.70706 25.3359L1.72464 25.3066H1.74222Z" fill="white"/>
</g>
<defs>
<clipPath id="clip0_67_581">
<rect width="30" height="30" fill="white" transform="translate(0.5)"/>
</clipPath>
</defs>
</svg>
