<svg width="31" height="30" viewBox="0 0 31 30" fill="none" xmlns="http://www.w3.org/2000/svg">
<g clip-path="url(#clip0_67_579)">
<path d="M13.7305 27.4336L13.584 27.2988L3.31836 17.7656C1.51953 16.0957 0.5 13.752 0.5 11.2969V11.1035C0.5 6.97853 3.42969 3.43947 7.48438 2.66603C9.79297 2.22072 12.1543 2.75392 14.0352 4.07814C14.5625 4.45314 15.0547 4.88673 15.5 5.38478C15.7461 5.10353 16.0098 4.84572 16.291 4.60548C16.5078 4.41798 16.7305 4.2422 16.9648 4.07814C18.8457 2.75392 21.207 2.22072 23.5156 2.66017C27.5703 3.43361 30.5 6.97853 30.5 11.1035V11.2969C30.5 13.752 29.4805 16.0957 27.6816 17.7656L17.416 27.2988L17.2695 27.4336C16.7891 27.8789 16.1562 28.1309 15.5 28.1309C14.8438 28.1309 14.2109 27.8848 13.7305 27.4336ZM14.5098 8.49611C14.4863 8.47853 14.4688 8.45509 14.4512 8.43165L13.4082 7.25978L13.4023 7.25392C12.0488 5.73634 10.0039 5.04493 8.01172 5.42579C5.28125 5.94728 3.3125 8.32618 3.3125 11.1035V11.2969C3.3125 12.9668 4.00977 14.5664 5.23438 15.7031L15.5 25.2363L25.7656 15.7031C26.9902 14.5664 27.6875 12.9668 27.6875 11.2969V11.1035C27.6875 8.33204 25.7188 5.94728 22.9941 5.42579C21.002 5.04493 18.9512 5.7422 17.6035 7.25392C17.6035 7.25392 17.6035 7.25392 17.5977 7.25978C17.5918 7.26564 17.5977 7.25978 17.5918 7.26564L16.5488 8.43751C16.5312 8.46095 16.5078 8.47853 16.4902 8.50197C16.2266 8.76564 15.8691 8.91212 15.5 8.91212C15.1309 8.91212 14.7734 8.76564 14.5098 8.50197V8.49611Z" fill="white"/>
</g>
<defs>
<clipPath id="clip0_67_579">
<rect width="30" height="30" fill="white" transform="translate(0.5)"/>
</clipPath>
</defs>
</svg>
