<svg width="26" height="25" viewBox="0 0 26 25" fill="none" xmlns="http://www.w3.org/2000/svg">
<path d="M23.7057 10.7444V21.5277C23.7057 23.4454 22.1511 25 20.2335 25H16.0668C15.6833 25 15.3724 24.689 15.3724 24.3055V15.9722C15.3724 15.5887 15.0615 15.2778 14.6779 15.2778H10.5113C10.1277 15.2778 9.81683 15.5887 9.81683 15.9722V24.3055C9.81683 24.689 9.50591 25 9.12238 25H4.95572C3.03807 25 1.48351 23.4454 1.48351 21.5277V10.7444L1.23053 10.9527C0.934466 11.1965 0.496813 11.1542 0.253 10.8581C0.00918727 10.5621 0.0515407 10.1244 0.347599 9.88059L12.1531 0.158382C12.4096 -0.0527938 12.7796 -0.0527938 13.0361 0.158382L24.8416 9.88059C25.1377 10.1244 25.18 10.5621 24.9362 10.8581C24.6924 11.1542 24.2547 11.1965 23.9587 10.9527L23.7057 10.7444ZM21.8846 9.97181L12.5946 2.32118L3.30455 9.97181C3.30455 9.93299 3.31067 10.0089 3.30455 9.97181L3.30455 21C3.30455 22.1506 3.80513 23 4.95572 23H8.0946L8.0946 15.9722C8.0946 14.8216 9.36068 13.5 10.5113 13.5H14.6779C15.8285 13.5 17.0946 14.8216 17.0946 15.9722L17.0946 23H20.2335C21.3841 23 21.8847 22.1506 21.8847 21L21.8846 9.97181C21.8846 9.933 21.8785 10.0089 21.8846 9.97181Z" fill="white"/>
</svg>
