<svg width="25" height="25" viewBox="0 0 25 25" fill="none" xmlns="http://www.w3.org/2000/svg">
<path d="M15.5681 1.30212C14.1436 1.3021 12.9953 1.30208 12.0922 1.4235C11.1546 1.54956 10.3651 1.81924 9.73814 2.44624C9.19133 2.99304 8.91504 3.665 8.77 4.45457C8.62908 5.22182 8.60212 6.16077 8.59584 7.28736C8.59344 7.71882 8.94126 8.07054 9.37273 8.07295C9.8042 8.07535 10.1559 7.72752 10.1583 7.29606C10.1647 6.157 10.1942 5.34962 10.3068 4.73686C10.4152 4.14644 10.5894 3.80469 10.843 3.55109C11.1313 3.2628 11.5361 3.07483 12.3004 2.97207C13.0872 2.86628 14.13 2.86462 15.6253 2.86462H16.6669C18.1621 2.86462 19.2049 2.86628 19.9918 2.97207C20.7562 3.07483 21.1609 3.2628 21.4492 3.55109C21.7375 3.83938 21.9255 4.24416 22.0283 5.0085C22.134 5.79532 22.1357 6.83816 22.1357 8.33337V16.6667C22.1357 18.1619 22.134 19.2047 22.0283 19.9916C21.9255 20.756 21.7375 21.1607 21.4492 21.449C21.1609 21.7373 20.7562 21.9252 19.9918 22.0281C19.2049 22.1338 18.1621 22.1355 16.6669 22.1355H15.6253C14.13 22.1355 13.0872 22.1338 12.3004 22.0281C11.5361 21.9252 11.1313 21.7373 10.843 21.449C10.5894 21.1954 10.4152 20.8537 10.3068 20.2633C10.1942 19.6505 10.1647 18.8431 10.1583 17.704C10.1559 17.2725 9.8042 16.9247 9.37273 16.9271C8.94126 16.9295 8.59344 17.2813 8.59584 17.7127C8.60212 18.8393 8.62908 19.7783 8.77 20.5455C8.91504 21.335 9.19133 22.007 9.73814 22.5539C10.3651 23.1809 11.1546 23.4506 12.0922 23.5766C12.9953 23.698 14.1436 23.698 15.5681 23.698H16.7241C18.1487 23.698 19.2969 23.698 20.2 23.5766C21.1376 23.4506 21.927 23.1809 22.5541 22.5539C23.1811 21.9268 23.4508 21.1374 23.5768 20.1998C23.6983 19.2967 23.6982 18.1485 23.6982 16.7239V8.27622C23.6982 6.85165 23.6983 5.7034 23.5768 4.8003C23.4508 3.86269 23.1811 3.07324 22.5541 2.44624C21.927 1.81924 21.1376 1.54956 20.2 1.4235C19.2969 1.30208 18.1487 1.3021 16.7241 1.30212H15.5681Z" fill="white" stroke="white" stroke-width="0.3"/>
<path d="M15.625 11.7188C16.0565 11.7188 16.4063 12.0686 16.4063 12.5C16.4063 12.9315 16.0565 13.2813 15.625 13.2813H4.19529L6.23763 15.0319C6.56524 15.3126 6.60318 15.8058 6.32237 16.1335C6.04158 16.4611 5.54837 16.499 5.22078 16.2181L1.57495 13.0931C1.40178 12.9448 1.30212 12.728 1.30212 12.5C1.30212 12.272 1.40178 12.0552 1.57495 11.9069L5.22078 8.78185C5.54837 8.50105 6.04158 8.53898 6.32237 8.86659C6.60318 9.19418 6.56524 9.68739 6.23763 9.96818L4.19529 11.7188H15.625Z" fill="white" stroke="white" stroke-width="0.3"/>
</svg>
