<svg width="25" height="25" viewBox="0 0 25 25" fill="none" xmlns="http://www.w3.org/2000/svg">
<path d="M12.6399 14.279C12.6167 14.279 12.5818 14.279 12.5585 14.279C12.5236 14.279 12.4771 14.279 12.4422 14.279C9.80267 14.1976 7.82593 12.1395 7.82593 9.6046C7.82593 7.02322 9.93058 4.91858 12.512 4.91858C15.0934 4.91858 17.1981 7.02322 17.1981 9.6046C17.1864 12.1511 15.1981 14.1976 12.6748 14.279C12.6515 14.279 12.6515 14.279 12.6399 14.279ZM12.5004 6.65113C10.8725 6.65113 9.55849 7.9767 9.55849 9.59298C9.55849 11.186 10.8027 12.4767 12.3841 12.5348C12.419 12.5232 12.5353 12.5232 12.6515 12.5348C14.2097 12.4535 15.4306 11.1744 15.4422 9.59298C15.4422 7.9767 14.1283 6.65113 12.5004 6.65113Z" fill="white"/>
<path d="M12.5009 25C9.37297 25 6.3846 23.8372 4.07064 21.721C3.86134 21.5349 3.76832 21.2559 3.79157 20.9884C3.94274 19.6047 4.8032 18.314 6.23343 17.3605C9.69855 15.0582 15.3148 15.0582 18.7683 17.3605C20.1985 18.3256 21.059 19.6047 21.2102 20.9884C21.2451 21.2675 21.1404 21.5349 20.9311 21.721C18.6171 23.8372 15.6288 25 12.5009 25ZM5.61716 20.7559C7.54739 22.3721 9.97762 23.2558 12.5009 23.2558C15.0241 23.2558 17.4544 22.3721 19.3846 20.7559C19.1753 20.0466 18.6171 19.3605 17.7916 18.8024C14.9311 16.8954 10.0823 16.8954 7.19855 18.8024C6.37297 19.3605 5.82646 20.0466 5.61716 20.7559Z" fill="white"/>
<path d="M12.5 24.9999C5.60465 24.9999 0 19.3953 0 12.4999C0 5.60463 5.60465 0 12.5 0C19.3953 0 25 5.60463 25 12.4999C25 19.3953 19.3953 24.9999 12.5 24.9999ZM12.5 1.74418C6.56977 1.74418 1.74419 6.56974 1.74419 12.4999C1.74419 18.4301 6.56977 23.2557 12.5 23.2557C18.4302 23.2557 23.2558 18.4301 23.2558 12.4999C23.2558 6.56974 18.4302 1.74418 12.5 1.74418Z" fill="white"/>
</svg>
