<svg width="25" height="25" viewBox="0 0 25 25" fill="none" xmlns="http://www.w3.org/2000/svg">
<path d="M11.8003 23.1399C5.29575 23.1399 0 17.9476 0 11.57C0 5.19237 5.29575 0 11.8003 0C18.3049 0 23.6006 5.19237 23.6006 11.57C23.6006 17.9476 18.3049 23.1399 11.8003 23.1399ZM11.8003 1.94131C6.23978 1.94131 1.97996 6.12926 1.97996 11.57C1.97996 17.0107 6.23978 21.1991 11.8003 21.1991C17.3609 21.1991 21.6211 17.0107 21.6211 11.57C21.6211 6.12926 17.3609 1.94131 11.8003 1.94131Z" fill="white"/>
<path d="M24.1391 25C23.9204 25 23.7017 24.921 23.529 24.7517L20.976 21.7627C20.6421 21.4354 20.6421 20.8935 20.976 20.5662C21.3098 20.2389 21.8624 20.2389 22.1963 20.5662L24.7493 23.5552C25.0832 23.8825 25.0832 24.4243 24.7493 24.7517C24.5766 24.921 24.3579 25 24.1391 25Z" fill="white"/>
</svg>
